<svg xmlns="http://www.w3.org/2000/svg" viewBox="0 0 2603.72 650"><defs><style>.cls-1,.cls-3{fill:#444;}.cls-1,.cls-2{fill-rule:evenodd;}.cls-2{fill:#3d9bea;}</style></defs><title>inoxbud-logo</title><g id="Warstwa_2" data-name="Warstwa 2"><g id="logo"><path id="INO" class="cls-1" d="M93.5,120.43H0V521.11H93.5Zm345.4,0v212q0,9.63.55,20.49t1.92,22.41L250.8,134.73a73.19,73.19,0,0,0-6.88-7.42,24.73,24.73,0,0,0-6.32-4.26,26.25,26.25,0,0,0-7.43-2.07,80.31,80.31,0,0,0-10.17-.55H171.05V521.11H253V306.33q0-8.79-.41-18.83t-1.52-20.77L440,505.71q7.14,8.52,14.44,12t18,3.44h48.4V120.43ZM976.66,240.06a193.37,193.37,0,0,0-42.21-64.9q-27.24-27.49-65.59-43.31T783.75,116Q737,116,698.5,131.71t-65.87,43.17a192.5,192.5,0,0,0-42.35,64.9q-15,37.41-15,80.85t15,80.85a193.73,193.73,0,0,0,42.35,65Q660,494.17,698.5,509.83t85.25,15.68q46.74,0,85.11-15.68t65.59-43.31a194.87,194.87,0,0,0,42.21-65q15-37.39,15-80.85Q991.64,277.46,976.66,240.06ZM888.79,374.4q-7.69,23.79-22.13,40.29a94.15,94.15,0,0,1-35.34,25.16q-20.9,8.65-47.58,8.66-27,0-48-8.66a93.93,93.93,0,0,1-35.48-25.16q-14.43-16.5-22.14-40.29t-7.7-53.76q0-29.7,7.7-53.49t22.14-40.29a95.29,95.29,0,0,1,35.48-25.3q21-8.79,48-8.8,26.67,0,47.58,8.8a95.63,95.63,0,0,1,35.34,25.3q14.43,16.5,22.13,40.29t7.7,53.49Q896.49,350.61,888.79,374.4Z"/><path id="BUD" class="cls-2" d="M1553,451V351.16h64.9q17.6,0,29.15,3.3t18.57,9.35a32.84,32.84,0,0,1,9.9,14.85,63.55,63.55,0,0,1,2.88,19.8,74.09,74.09,0,0,1-2.47,19,40.51,40.51,0,0,1-9.08,16.78q-6.6,7.43-18.28,12.1T1618.4,451Zm54.45-261a129.66,129.66,0,0,1,27.09,2.47q11.41,2.47,18.84,8.25a34.23,34.23,0,0,1,11,15.27q3.57,9.48,3.57,23.78,0,14.58-4.53,24.2a35.39,35.39,0,0,1-13.2,15.13,57.85,57.85,0,0,1-21,7.7,159.58,159.58,0,0,1-27.78,2.2H1553V190ZM1460,120.43V521.11h160q36,0,64.08-9.21t47.16-25.58a108.82,108.82,0,0,0,29-38.36,114.64,114.64,0,0,0,9.9-47.58q0-34.1-19-55.55t-58.58-31.07a132.82,132.82,0,0,0,31.08-15.68,94.29,94.29,0,0,0,21.17-19.93,74.9,74.9,0,0,0,12.1-23.38,87.69,87.69,0,0,0,3.85-26q0-24.75-8.38-44.82a82.51,82.51,0,0,0-26.82-34.1q-18.42-14-47.57-21.73t-70.68-7.7ZM1962,441.5a66.84,66.84,0,0,1-24.88-17.87,79.78,79.78,0,0,1-15.54-28.33q-5.37-16.64-5.36-37.81V120.43h-93V357.76q0,36.86,11.82,67.65a150,150,0,0,0,34.1,53.07q22.27,22.27,54.18,34.65t72,12.38q39.87,0,71.77-12.38t54.18-34.65a151.57,151.57,0,0,0,34.23-53.07q12-30.81,12-67.65V120.43h-92.95V357.76q0,21.18-5.37,37.81a78.37,78.37,0,0,1-15.53,28.19,67.79,67.79,0,0,1-24.89,17.74q-14.71,6.18-33.41,6.18T1962,441.5Zm626.72-200.75a186.18,186.18,0,0,0-42.21-63.39q-27.22-26.67-65.59-41.8t-85.11-15.12H2240.17V521.11h155.65q46.75,0,85.11-15t65.59-41.8a187.58,187.58,0,0,0,42.21-63.52q15-36.72,15-80.17,0-43.17-15-79.88Zm-87.86,133.79q-7.7,23.93-22.14,40.56a96.18,96.18,0,0,1-35.33,25.58q-20.91,8.94-47.58,8.93h-62.15V191.93h62.15q26.67,0,47.58,8.94a96.18,96.18,0,0,1,35.33,25.58q14.45,16.63,22.14,40.56t7.7,53.62q0,30-7.7,53.9Z"/><polygon class="cls-1" points="991.8 576.67 1370.77 35.01 1397.68 73.89 1014.8 613.83 991.8 576.67"/><path class="cls-3" d="M1370.68,70l2.58,3.72L1015.93,577.66l-.19-.31L1370.68,70m.18-70-403,576,45.81,74L1422.1,74,1370.86,0Z"/><g id="Kształt_887" data-name="Kształt 887"><polygon class="cls-1" points="1304.3 500 1061.31 140 1103.26 140 1355.26 500 1304.3 500"/><path class="cls-3" d="M1263.32,403.54,1316.84,480h-1.91l-51.61-76.46M1113.67,120h-90l270,400h100l-280-400Z"/></g><polygon class="cls-1" points="1390.86 54.01 1390.86 20 2583.72 20 2583.72 54 1422.1 54.03 1422.11 54.03 1390.86 54.01"/><polygon class="cls-3" points="2603.72 0 1370.86 0 1370.86 74 1422.1 74.03 2603.72 74 2603.72 0 2603.72 0"/><rect class="cls-3" x="20" y="596" width="973.67" height="34"/><polygon class="cls-3" points="1013.67 576 0 576 0 650 1013.67 650 1013.67 576 1013.67 576"/></g></g></svg>